<svg xmlns="http://www.w3.org/2000/svg" width="23.269" height="23.269" viewBox="54.865 488.076 23.269 23.269"><path d="M76.63 496.802h-1.304c-.8 0-1.5-.676-1.554-1.455 0-4.15-3.347-7.271-7.526-7.271h-3.814c-4.177 0-7.564 3.363-7.567 7.514v8.244c0 4.15 3.39 7.511 7.567 7.511h8.145c4.18 0 7.558-3.36 7.558-7.511v-5.326c0-.83-.67-1.706-1.505-1.706Zm-14.493-2.909H66.5c.8 0 1.454.655 1.454 1.454 0 .8-.654 1.455-1.454 1.455h-4.363c-.8 0-1.454-.655-1.454-1.455s.654-1.454 1.454-1.454Zm8.726 11.635h-8.726c-.8 0-1.454-.655-1.454-1.455s.654-1.454 1.454-1.454h8.726c.8 0 1.454.655 1.454 1.454 0 .8-.654 1.455-1.454 1.455Z" fill="#2072b7" fill-rule="evenodd" data-name="Icon metro-blogger"/></svg>