<svg xmlns="http://www.w3.org/2000/svg" width="20.71" height="20.71" viewBox="1201.142 1332.623 20.71 20.71"><path d="M1221.852 1342.977c0 5.72-4.636 10.355-10.355 10.355s-10.355-4.636-10.355-10.355c0-5.718 4.636-10.354 10.355-10.354s10.355 4.636 10.355 10.354Zm-5.915-1.475c.206-1.378-.843-2.118-2.277-2.612l.465-1.867-1.136-.283-.453 1.817a47.33 47.33 0 0 0-.91-.214l.456-1.83-1.136-.282-.466 1.865c-.247-.056-.49-.111-.725-.17l.001-.006-1.567-.391-.302 1.213s.843.194.825.205c.46.115.544.42.53.661l-.53 2.126c.031.009.072.02.118.038l-.12-.03-.744 2.98c-.056.139-.199.349-.52.269.011.017-.826-.206-.826-.206l-.564 1.3 1.478.369c.276.069.545.141.81.209l-.47 1.888 1.135.283.466-1.868c.3.082.603.16.905.235l-.464 1.859 1.136.283.47-1.884c1.938.367 3.395.219 4.008-1.534.495-1.41-.024-2.224-1.044-2.755.743-.171 1.302-.66 1.451-1.668Zm-2.596 3.64c-.351 1.411-2.727.648-3.497.457l.624-2.5c.77.191 3.24.572 2.873 2.043Zm.352-3.66c-.32 1.283-2.298.631-2.94.471l.566-2.268c.642.16 2.707.458 2.374 1.797Z" fill="#f28910" fill-rule="evenodd" data-name="Icon awesome-bitcoin"/></svg>