<svg xmlns="http://www.w3.org/2000/svg" width="19.487" height="19.487" viewBox="56.757 138.757 19.487 19.487"><path d="M74.078 138.757H58.922c-1.191 0-2.165.974-2.165 2.165v15.156c0 1.191.974 2.165 2.165 2.165h15.156c1.191 0 2.165-.974 2.165-2.165v-15.156c0-1.191-.974-2.165-2.165-2.165Zm-12.45 16.239a1.622 1.622 0 0 1-1.624-1.624c0-.899.726-1.624 1.624-1.624.899 0 1.624.725 1.624 1.624 0 .898-.725 1.624-1.624 1.624Zm0-9.744a1.622 1.622 0 0 1-1.624-1.624c0-.898.726-1.624 1.624-1.624.899 0 1.624.726 1.624 1.624 0 .899-.725 1.624-1.624 1.624Zm4.872 4.872a1.622 1.622 0 0 1-1.624-1.624c0-.899.725-1.624 1.624-1.624.899 0 1.624.725 1.624 1.624 0 .899-.725 1.624-1.624 1.624Zm4.872 4.872a1.622 1.622 0 0 1-1.624-1.624c0-.899.725-1.624 1.624-1.624.898 0 1.624.725 1.624 1.624 0 .898-.726 1.624-1.624 1.624Zm0-9.744a1.622 1.622 0 0 1-1.624-1.624c0-.898.725-1.624 1.624-1.624.898 0 1.624.726 1.624 1.624 0 .899-.726 1.624-1.624 1.624Z" fill="#2072b7" fill-rule="evenodd" data-name="Icon material-casino"/></svg>