<svg xmlns="http://www.w3.org/2000/svg" width="20.871" height="20.875" viewBox="56.065 224.063 20.871 20.875"><path d="m71.574 239.041 1.212-.585a9.165 9.165 0 0 0 1.856 2.563 10.402 10.402 0 0 0 2.293-6.519c0-2.462-.858-4.722-2.28-6.507a9.048 9.048 0 0 0-1.836 2.505l-1.208-.594A10.379 10.379 0 0 1 73.75 227a10.394 10.394 0 0 0-7.247-2.937c-2.815 0-5.366 1.12-7.243 2.933a10.408 10.408 0 0 1 2.134 2.896l-1.208.593a9.076 9.076 0 0 0-1.83-2.5 10.387 10.387 0 0 0-2.29 6.515c0 2.466.858 4.726 2.29 6.51a9.07 9.07 0 0 0 1.864-2.567l1.212.585a10.384 10.384 0 0 1-2.168 2.976 10.37 10.37 0 0 0 7.24 2.933c2.81 0 5.357-1.115 7.234-2.925a10.431 10.431 0 0 1-2.163-2.97Zm-9.609-1.347-1.283-.412a9.137 9.137 0 0 0-.026-5.64l1.28-.42c.631 1.919.757 4.204.03 6.472Zm9.103-6.456 1.28.421a9.167 9.167 0 0 0-.025 5.64l-1.284.412a10.5 10.5 0 0 1 .03-6.473Z" fill="#2072b7" fill-rule="evenodd" data-name="Icon awesome-baseball-ball"/></svg>