<svg xmlns="http://www.w3.org/2000/svg" width="21.836" height="21.837" viewBox="55.582 578.581 21.836 21.837"><path d="M77.407 599.867c-.41-1.808-2.746-2.69-3.554-2.974-.887-.313-2.15-.387-2.963-.569-.466-.102-1.143-.358-1.37-.631-.228-.273-.091-2.804-.091-2.804s.42-.654.648-1.234c.227-.574.478-2.155.478-2.155s.466 0 .631-.819c.176-.893.455-1.24.42-1.905-.033-.654-.392-.637-.392-.637s.347-.95.387-2.917c.051-2.338-1.78-4.64-5.095-4.64-3.361 0-5.153 2.302-5.101 4.64.045 1.967.38 2.917.38 2.917s-.358-.017-.392.637c-.034.665.245 1.012.421 1.905.16.819.631.819.631.819s.25 1.581.478 2.155c.227.58.648 1.234.648 1.234s.137 2.531-.09 2.804c-.228.273-.905.529-1.371.631-.813.182-2.076.256-2.963.569-.808.284-3.145 1.166-3.554 2.974a.455.455 0 0 0 .449.552h20.922c.29 0 .506-.268.443-.552Z" fill="#2072b7" fill-rule="evenodd" data-name="Icon ionic-ios-person"/></svg>