<svg xmlns="http://www.w3.org/2000/svg" width="19.359" height="19.359" viewBox="1680 23.82 19.359 19.359"><path d="M1689.68 34.71a5.446 5.446 0 0 0 5.445-5.445 5.446 5.446 0 0 0-5.445-5.445 5.446 5.446 0 0 0-5.445 5.445 5.446 5.446 0 0 0 5.445 5.445Zm4.84 1.21h-2.084a6.59 6.59 0 0 1-5.513 0h-2.083a4.84 4.84 0 0 0-4.84 4.84v.605c0 1.002.813 1.815 1.815 1.815h15.73a1.815 1.815 0 0 0 1.814-1.815v-.605a4.84 4.84 0 0 0-4.84-4.84Z" fill="#7c7c7c" fill-rule="evenodd" data-name="Icon awesome-user-alt"/></svg>