<svg xmlns="http://www.w3.org/2000/svg" width="36" height="36" viewBox="1421 772 36 36"><path d="m1436.732 781.193-4.86-8.1a2.25 2.25 0 0 0-1.93-1.093h-7.815a1.125 1.125 0 0 0-.922 1.77l7.824 11.177a14.552 14.552 0 0 1 7.703-3.754Zm19.14-9.193h-7.814a2.25 2.25 0 0 0-1.93 1.093l-4.86 8.1a14.556 14.556 0 0 1 7.703 3.754l7.824-11.177a1.125 1.125 0 0 0-.922-1.77ZM1439 783.25c-6.834 0-12.375 5.54-12.375 12.375 0 6.834 5.54 12.375 12.375 12.375 6.834 0 12.375-5.54 12.375-12.375 0-6.834-5.54-12.375-12.375-12.375Zm6.505 11.057-2.667 2.6.631 3.67a.807.807 0 0 1-1.17.85l-3.299-1.732-3.298 1.733a.807.807 0 0 1-1.17-.85l.63-3.672-2.667-2.599a.808.808 0 0 1 .447-1.377l3.686-.537 1.648-3.342c.148-.3.435-.449.723-.449.289 0 .578.15.726.45l1.647 3.34 3.687.538c.66.096.926.91.446 1.377Z" fill="#f28910" fill-rule="evenodd" data-name="Icon awesome-medal"/></svg>